<svg xmlns="http://www.w3.org/2000/svg" viewBox="0 0 640 512" preserveAspectRatio="xMidYMid slice">
<defs>
<linearGradient id="sky" x1="0" y1="0" x2="0" y2="1">
<stop offset="0" stop-color="#2E9DF7"/><stop offset="1" stop-color="#1b7fd6"/>
</linearGradient>
</defs>
<rect width="640" height="512" fill="url(#sky)"/>

<g transform="translate(150,120)"><rect x="-3" y="-64" width="6" height="12" rx="3" fill="#FFC907" transform="rotate(0)"/><rect x="-3" y="-64" width="6" height="12" rx="3" fill="#FFC907" transform="rotate(45)"/><rect x="-3" y="-64" width="6" height="12" rx="3" fill="#FFC907" transform="rotate(90)"/><rect x="-3" y="-64" width="6" height="12" rx="3" fill="#FFC907" transform="rotate(135)"/><rect x="-3" y="-64" width="6" height="12" rx="3" fill="#FFC907" transform="rotate(180)"/><rect x="-3" y="-64" width="6" height="12" rx="3" fill="#FFC907" transform="rotate(225)"/><rect x="-3" y="-64" width="6" height="12" rx="3" fill="#FFC907" transform="rotate(270)"/><rect x="-3" y="-64" width="6" height="12" rx="3" fill="#FFC907" transform="rotate(315)"/><circle r="46" fill="#FFC907"/></g>
<circle cx="520" cy="90" r="10" fill="#ffffff" opacity="0.5"/>
<circle cx="470" cy="150" r="6" fill="#ffffff" opacity="0.4"/>
<!-- ground -->
<path d="M0,430 Q320,380 640,430 L640,512 L0,512 Z" fill="#4FCB53"/>
<path d="M0,455 Q320,415 640,455 L640,512 L0,512 Z" fill="#159A48" opacity="0.85"/>
<!-- figure -->
<g transform="translate(330,250)">
  <rect x="-44" y="120" width="88" height="150" rx="30" fill="#FF902A"/>   <!-- body/dress -->
  <rect x="-12" y="-6" width="24" height="60" rx="12" fill="#a86b3c"/> <!-- raised arm -->
  <circle cx="0" cy="-30" r="34" fill="#7a4a28"/>                       <!-- head -->
  <path d="M-22,-30 a22,16 0 0 1 44,0 Z" fill="#5e3a20"/>               <!-- hair -->
  <path d="M-12,-22 q12,12 24,0" stroke="#3a2414" stroke-width="4" fill="none" stroke-linecap="round"/> <!-- smile -->
  <!-- glass of water held up -->
  <g transform="translate(0,-78)">
    <path d="M-16,-2 L16,-2 L12,34 L-12,34 Z" fill="#ffffff" opacity="0.9"/>
    <path d="M-13,14 L13,14 L11,32 L-11,32 Z" fill="#2E9DF7"/>
  </g>
</g>

</svg>